HIERARCHY
ROOT Hips
{
	OFFSET 0.00000 0.00000 0.00000
	CHANNELS 6 Xposition Yposition Zposition Zrotation Yrotation Xrotation 
	JOINT LHipJoint
	{
		OFFSET 0 0 0
		CHANNELS 3 Zrotation Yrotation Xrotation
		JOINT LeftHip
		{
			OFFSET 1.35324 -1.81393 0.86676
			CHANNELS 3 Zrotation Yrotation Xrotation
			JOINT LeftKnee
			{
				OFFSET 2.44396 -6.71474 0.00000
				CHANNELS 3 Zrotation Yrotation Xrotation
				JOINT LeftAnkle
				{
					OFFSET 2.78389 -7.64869 0.00000
					CHANNELS 3 Zrotation Yrotation Xrotation
					JOINT LeftToe
					{
						OFFSET 0.15837 -0.43512 1.94704
						CHANNELS 3 Zrotation Yrotation Xrotation
						End Site
						{
							OFFSET 0.00000 -0.00000 1.00735
						}
					}
				}
			}
		}
	}
	JOINT RHipJoint
	{
		OFFSET 0 0 0
		CHANNELS 3 Zrotation Yrotation Xrotation
		JOINT RightHip
		{
			OFFSET -1.14956 -1.81393 0.86676
			CHANNELS 3 Zrotation Yrotation Xrotation
			JOINT RightKnee
			{
				OFFSET -2.55632 -7.02343 0.00000
				CHANNELS 3 Zrotation Yrotation Xrotation
				JOINT RightAnkle
				{
					OFFSET -2.63038 -7.22691 0.00000
					CHANNELS 3 Zrotation Yrotation Xrotation
					JOINT RightToe
					{
						OFFSET -0.22277 -0.61205 2.06087
						CHANNELS 3 Zrotation Yrotation Xrotation
						End Site
						{
							OFFSET -0.00000 -0.00000 1.07867
						}
					}
				}
			}
		}
	}
	JOINT lowerback
	{
		OFFSET 0 0 0
		CHANNELS 3 Zrotation Yrotation Xrotation
		JOINT Chest
		{
			OFFSET -0.05682 2.18266 -0.21665
			CHANNELS 3 Zrotation Yrotation Xrotation
			JOINT Chest2
			{
				OFFSET 0.08791 2.18267 0.00700
				CHANNELS 3 Zrotation Yrotation Xrotation
				JOINT lowerneck
				{
					OFFSET 0 0 0
					CHANNELS 3 Zrotation Yrotation Xrotation
					JOINT Neck
					{
						OFFSET -0.14851 1.58495 0.25390
						CHANNELS 3 Zrotation Yrotation Xrotation
						JOINT Head
						{
							OFFSET 0.13566 1.62237 -0.28476
							CHANNELS 3 Zrotation Yrotation Xrotation
							End Site
							{
								OFFSET 0.05601 1.65818 -0.12921
							}
						}
					}
				}
				JOINT LeftCollar
				{
					OFFSET 0 0 0
					CHANNELS 3 Zrotation Yrotation Xrotation
					JOINT LeftShoulder
					{
						OFFSET 3.23337 0.97114 -0.51072
CHANNELS 3 Zrotation Xrotation Yrotation
						JOINT LeftElbow
						{
OFFSET 0 -5.199640 -0.000510
CHANNELS 3 Zrotation Xrotation Yrotation
							JOINT LeftWrist
							{
OFFSET 0 -3.321890 0.000000
CHANNELS 3 Zrotation Xrotation Yrotation
								JOINT lhand
								{
									OFFSET 0 0 0
CHANNELS 3 Zrotation Xrotation Yrotation
									JOINT LFingers
									{
OFFSET 0 -0.645620 0.000000
CHANNELS 3 Zrotation Xrotation Yrotation
										End Site
										{
OFFSET 0 -0.520510 0.000000
										}
									}
								}
								JOINT LThumb
								{
OFFSET 0 0.000000 0.000000
CHANNELS 3 Zrotation Xrotation Yrotation
									End Site
									{
OFFSET 0 -0.528460 0.528460
									}
								}
							}
						}
					}
				}
				JOINT RightCollar
				{
					OFFSET 0 0 0
					CHANNELS 3 Zrotation Yrotation Xrotation
					JOINT RightShoulder
					{
						OFFSET -2.95712 1.24697 -0.52388
CHANNELS 3 Zrotation Xrotation Yrotation
						JOINT RightElbow
						{
OFFSET 0 -5.659500 -0.000000
CHANNELS 3 Zrotation Xrotation Yrotation
							JOINT RightWrist
							{
OFFSET 0 -3.376040 -0.000000
CHANNELS 3 Zrotation Xrotation Yrotation
								JOINT rhand
								{
									OFFSET 0 0 0
CHANNELS 3 Zrotation Xrotation Yrotation
									JOINT RFingers
									{
OFFSET 0 -0.824700 -0.000000
CHANNELS 3 Zrotation Xrotation Yrotation
										End Site
										{
OFFSET 0 -0.664900 -0.000000
										}
									}
								}
								JOINT RThumb
								{
OFFSET 0 0.000000 0.000000
CHANNELS 3 Zrotation Xrotation Yrotation
									End Site
									{
OFFSET 0 -0.675050 0.675050
									}
								}
							}
						}
					}
				}
			}
		}
	}
}
MOTION
Frames: 15
Frame Time: 1
0 16.87246 0 2160.214 718.142 -88559.3 0 0 0 -379.4002 -4.0156 11.233 0 -0 0 -719.9632 6.2545 -1089.835 0.0703 -1.711 -4.7077 0 0 0 16.3474 11.6428 6.618 -0.4811 -4.4479 12.3402 -360.1562 -9.8252 -16.3269 -0.0806 1.831 -5.0388 0.2619 -1.0328 1.861 2.9269 -1.1923 -5.9723 3.0163 -0.5084 -7.2178 -13.3428 -7.9674 -2.7461 10.545 -12.6882 27.151 1084.688 -6.2693 10.6799 -0 -0 0 1550.551 -1.9855 -1802.787 44.0924 -50.316 21.538 -364.2984 -1493.956 -21.6082 0 0 0 -7.125 0 0 -1111.78 48.7506 2883.243 -0 -0 0 -491.9226 -13.0548 -2576.207 -25.5654 -36.7764 -8.6262 357.9235 -718.1116 -6.2054 0 0 0 7.125 0 -0 3258.029 23.7799 -2150.301
0 16.89887 0 2160.346 719.065 -88557.56 0 0 0 -377.8493 -9.5163 1.9932 0.3809 3.9636 10.9742 -719.8235 5.5845 -1091.906 0.2317 -3.0983 -8.5526 0 0 0 17.4209 15.8068 -0.8784 -1.2786 -7.1659 20.2079 -360.0524 -11.6581 -17.2968 -0.371 3.9124 -10.8302 0.1938 0.696 10.104 4.0166 1.2123 -0.7181 3.937 0.6642 -6.5246 -8.0903 -4.3268 -9.5514 6.4775 -5.2068 4.1056 1082.976 -2.456 3.1515 0 0 0 1479.655 22.2622 -1878.645 115.638 -57.3645 82.0067 -394.8238 -1497.649 -29.0784 0 0 0 -7.125 0 0 -1141.119 49.4263 2890.154 0 0 0 -398.7605 8.7924 -2531.996 -67.0193 -57.9073 -40.238 375.416 -691.829 -5.0528 0 0 0 7.125 0 -0 3270.042 24.3046 -2142.542
0 17.02021 0 2158.349 721.6186 -88556.1 0 0 0 -377.4548 -13.6735 5.1432 0.1314 2.3361 6.4355 -720.007 9.1714 -1092.944 0.2013 -2.889 -7.97 0 0 0 17.181 8.0406 4.7187 -0.0746 -1.7621 4.8487 -359.758 -11.3503 -11.9548 -0.0705 1.7126 -4.712 -3.0691 0.5525 9.6911 -1.2164 0.2942 -0.9619 0.4075 0.23 -6.4675 -14.0992 -9.7345 -8.5101 9.8114 -13.3935 21.3184 1084.105 -6.4944 9.7806 0 0 0 1447.635 4.0822 -1828.393 26.2168 -37.422 9.0191 -349.2883 -1447.309 -14.6369 0 0 0 -7.125 0 0 -1095.444 44.2997 2879.726 0 0 0 -371.2056 12.6987 -2487.979 -24.2025 -35.3776 -7.8235 341.6679 -725.4174 -14.2541 0 0 0 7.125 0 -0 3246.223 15.058 -2155.581
0 16.87266 0 2158.964 718.2957 -88563.48 0 0 0 -378.8216 -8.3894 10.7895 0.1819 2.7471 7.5753 -719.9658 8.4824 -1092.731 0.2991 -3.5167 -9.7208 0 0 0 18.1297 10.3162 8.5489 -0.4184 -4.1517 11.504 -359.9736 -10.0681 -13.9028 -0.1425 2.4327 -6.703 -2.0652 0.7343 10.5071 -0.2476 0.7118 0.2276 0.7963 0.4024 -5.683 -12.1493 -8.1138 -11.3586 4.7995 -10.8536 37.2531 1082.29 -5.6987 16.2132 -0 0 0 1445.027 3.0583 -1825.193 15.6817 -25.0871 3.5099 -351.2225 -1440.799 -13.5951 0 0 0 -7.125 0 0 -1096.827 43.0803 2879.178 -0 0 0 -366.2271 12.8505 -2490.557 -20.7522 -31.538 -5.9198 342.0044 -723.9129 -14.1646 0 0 0 7.125 0 -0 3246.45 15.1825 -2155.435
0 17.02816 0 2157.112 715.3201 -88548.57 0 0 0 -373.8345 -13.425 -13.101 1.0278 6.4489 18.0926 -719.8703 8.2662 -1094.065 0.3173 -3.6209 -10.0126 0 0 0 15.148 16.3554 -8.5802 -0.2816 -3.4129 9.4306 -359.8365 -8.9285 -8.9667 -0.102 2.0593 -5.6696 -6.5372 -1.7497 17.8362 -2.2446 -3.9095 -0.1816 2.2612 -1.5893 -9.9637 -7.1987 1.9696 -14.9066 15.9625 3.2839 -0.6928 1086.298 2.2169 1.8843 0 0 0 1599.767 -63.282 -1693.336 10.2232 -17.0879 1.5399 -355.2091 -1425.707 -23.0489 0 0 0 -7.125 0 0 -1104.396 51.4193 2884.061 0 0 0 -367.8116 12.7103 -2491.042 -18.271 -28.5028 -4.6779 342.3123 -725.6101 -15.8356 0 0 0 7.125 0 -0 3246.705 13.483 -2155.008
0 17.00466 0 2158.428 720.8419 -88556.74 0 0 0 -376.871 -12.0654 0.9712 0.3714 3.9145 10.8362 -719.887 6.2059 -1091.385 0.2652 -3.3127 -9.1505 0 0 0 17.025 11.6144 1.906 -0.3209 -3.6412 10.0693 -359.8095 -11.4976 -13.2856 -0.0534 1.4915 -4.1022 -5.9434 0.082 12.261 -2.0248 -1.0895 -3.763 1.3864 -0.1978 -10.9545 -10.3796 -3.464 -10.2789 15.3567 -5.9968 18.6014 1086.343 -2.2185 8.1995 0 -0 0 1496.735 -38.997 -1828.544 46.1841 -51.3356 23.1597 -349.7866 -1450.982 -19.8769 0 0 0 -7.125 0 0 -1097.796 49.3024 2881.943 0 -0 0 -369.4676 21.288 -2493.496 -17.5065 -27.5207 -4.3188 343.3206 -723.2322 -18.7988 0 0 0 7.125 0 -0 3247.479 10.547 -2153.963
0 16.72254 0 2160.427 724.0385 -88556.61 0 0 0 -379.1299 -8.8074 2.8311 0.6195 5.0371 14.0145 -719.4561 -0.6279 -1093.731 0.0983 -2.0223 -5.5674 0 0 0 16.4121 9.1249 3.1143 -0.9263 -6.1313 17.1658 -360.4204 -11.385 -21.1447 -0.2759 3.3787 -9.3348 -1.49 0.0363 7.1129 -0.5339 -0.2152 -9.273 0.2849 0.0208 -14.1845 -15.2522 -7.6133 -8.0599 14.1894 -11.0157 18.0442 1086.17 -5.1318 8.569 -0 0 0 1543.818 -1.7575 -1723.749 17.3629 -27.3337 4.2526 -362.0674 -1473.415 -18.4424 0 0 0 -7.125 0 0 -1108.169 46.3008 2880.982 -0 0 0 -108.471 -6.8855 -2243.898 -14.2197 -23.048 -2.9136 358.2824 -735.7535 -11.1196 0 0 0 7.125 0 -0 3257.702 19.1038 -2148.507
0 16.963 0 2160.602 724.1708 -88555.71 0 0 0 -379.1241 -13.0645 -2.2264 0.5449 4.7293 13.1381 -719.8561 4.8342 -1090.552 0.2521 -3.2309 -8.9221 0 0 0 14.5189 13.4775 -2.9229 -1.0072 -6.3859 17.9083 -359.8716 -13.2207 -17.1403 -0.1929 2.8285 -7.8017 0.4756 0.6356 12.2008 2.2133 1.1461 -3.0577 1.8793 0.6027 -10.2115 -16.1358 -13.4126 -4.4997 18.4185 -20.8316 19.2138 1086.429 -9.5545 10.6222 0 -0 0 1464.323 3.6944 -1784.023 8.2738 -13.9957 1.0173 -353.8178 -1413.824 -9.7924 0 0 0 -7.125 0 0 -1097.952 39.1934 2877.33 0 -0 0 -27.1555 -0.2596 -2157.832 -16.5474 -26.2573 -3.885 349.4071 -721.4861 -17.5572 0 0 0 7.125 0 -0 3251.435 12.3986 -2151.104
0 17.03366 0 2160.536 723.0739 -88555.24 0 0 0 -376.5876 -14.337 -4.8779 0.3937 4.0291 11.1585 -720.0685 6.4228 -1087.073 0.3715 -3.9151 -10.8379 0 0 0 15.2416 17.6399 -7.6252 -1.3286 -7.2994 20.6053 -359.4383 -16.1594 -16.0474 -0.045 1.3698 -3.7669 -1.3391 0.3938 14.9254 -0.7292 0.2377 0.6671 -0.0693 0.1497 -7.6755 -10.6135 -6.9951 -12.3349 4.1271 -8.4417 24.3071 1082.137 -4.3878 10.4717 0 0 0 1458.719 8.9333 -1837.007 38.9634 -47.4436 17.6718 -357.724 -1468.682 -14.9924 0 0 0 -7.125 0 0 -1102.94 43.7046 2879.223 0 0 0 -41.8705 0.3674 -2126.749 -124.0981 -55.1152 -89.0455 351.2677 -759.1325 -17.2024 0 0 0 7.125 0 -0 3252.658 12.893 -2150.239
0 17.06879 0 2162.328 724.1483 -88548.01 0 0 0 -377.2033 -17.0831 -8.464 0.2747 3.3714 9.3145 -720.0455 7.0632 -1088.92 0.3317 -3.7012 -10.2375 0 0 0 11.7122 15.4746 -15.4979 -1.6666 -8.134 23.122 -359.9148 -13.1581 -17.6272 -0.2844 3.4297 -9.4775 -4.8859 1.5961 18.1301 -5.5054 0.439 -0.9371 -3.436 0.2972 -11.284 -12.7414 -8.3731 -4.9188 21.3476 -10.5367 -4.5504 1088.234 -5.1233 1.4571 0 0 0 1454.193 12.9515 -1781.648 7.5727 -12.8579 0.8545 -353.1533 -1416.265 -10.8516 0 0 0 -7.125 0 0 -1097.684 40.2611 2877.857 0 0 0 -99.9154 -15.6219 -2175.713 -131.126 -52.5311 -94.7223 354.1369 -761.1007 -17.7981 0 0 0 7.125 0 -0 3254.507 12.5058 -2148.598
0 16.88679 0 2158.948 712.8547 -88558.43 0 0 0 -375.1697 2.6428 8.0508 0 0 0 -719.9466 4.4384 -1088.034 0.2329 -3.1058 -8.5735 0 0 0 19.2773 15.1299 2.9849 -0.6575 -5.1865 14.4412 -360.1598 -8.2501 -14.5105 -0.1092 2.131 -5.8678 2.2718 -1.4144 7.5606 4.3855 -1.1712 -7.013 3.7039 -0.5247 -11.8028 -11.4143 -5.4331 -5.7748 9.5201 -7.0834 7.0657 1084.383 -3.4226 3.7951 -0 0 0 1547.659 -4.21 -1754.627 68.4092 -58.1632 41.4171 -374.987 -1523.697 -24.1026 0 0 0 -7.125 0 0 -1122.421 49.177 2885.235 -0 0 0 -118.9917 -8.5147 -2207.445 -60.201 -56.3633 -34.5084 349.1719 -792.1497 -7.8079 0 0 0 7.125 0 -0 3251.604 22.0838 -2153.478
0 16.98797 0 2157.13 741.6168 -88557.26 0 0 0 -372.2739 -18.1674 -0.2444 0.4831 4.4571 12.3665 -719.928 -5.4992 -1085.742 0.3445 -3.7717 -10.4353 0 0 0 22.271 -5.8059 7.9219 0 -0 0 -359.6647 -15.8491 -18.7311 -0.2217 -3.0311 8.3652 -1.1448 1.1081 9.0155 -4.3047 0.9612 -4.6388 -4.1558 0.3769 -9.9955 -12.2332 -0.473 -3.7326 12.4202 -1.2292 14.9567 1085.931 -0.4732 5.1896 -0 -0 0 1541.509 -5.9943 -1720.571 17.0707 -26.9509 4.1194 -352.1908 -1485.848 -20.6837 0 0 0 -7.125 0 0 -1100.389 49.7084 2882.458 -0 -0 0 -86.1154 14.2485 -2227.466 -16.141 -25.7114 -3.7069 336.4294 -764.5925 -5.0509 0 0 0 7.125 0 -0 3242.319 24.4721 -2158.849
0 17.03141 0 2158.001 734.7821 -88556.68 0 0 0 -374.5532 -15.4468 0.8278 0.3172 3.6203 10.0108 -719.8614 -1.33 -1086.691 0.2794 -3.3999 -9.3941 0 0 0 19.9218 1.0185 8.1475 0 0 -0 -359.154 -17.9441 -15.3794 -0.0024 0.3139 -0.8625 -1.5362 1.1115 11.121 -1.6892 1.1415 -1.4865 -1.1247 0.5828 -7.8264 -15.0877 -8.355 -4.0493 13.9871 -12.6212 19.8532 1086.039 -6.0194 8.6799 -0 0 0 1464.816 12.3299 -1741.566 17.7183 -27.795 4.4171 -354.3689 -1487.096 -19.5025 0 0 0 -7.125 0 0 -1101.848 48.29 2881.856 -0 0 0 -29.8858 16.0863 -2220.013 -12.5589 -20.6376 -2.2955 341.7636 -747.6866 -7.9666 0 0 0 7.125 0 -0 3246.242 21.6169 -2156.476
0 17.0071 0 2159.449 712.6039 -88554.93 0 0 0 -376.1871 -10.5913 -2.0709 0.3619 3.8648 10.6966 -720.2434 12.2248 -1093.622 0.3274 -3.6777 -10.1715 0 0 0 16.5179 19.0909 -6.4337 -1.0069 -6.385 17.9055 -359.9403 -9.2992 -12.1351 -0.1329 2.3496 -6.4728 1.5078 -1.312 17.2211 2.4851 -1.2207 0.9187 2.1238 -0.5945 -8.6599 -9.6963 -6.2497 -16.4038 5.4614 -7.3295 18.6159 1082.507 -3.5549 9.1232 0 0 0 1456.087 -12.2085 -1861.192 34.2158 -44.244 14.2634 -329.8264 -1426 -8.6539 0 0 0 -7.125 0 0 -1077.123 39.9485 2880.359 0 0 0 -32.1392 8.0909 -2117.56 -46.0436 -51.2696 -23.05 333.4239 -714.0691 -17.1501 0 0 0 7.125 0 -0 3240.874 10.9442 -2159.308
0 16.92169 0 2157.595 721.634 -88562.85 0 0 0 -377.4831 -15.525 12.5106 0.1623 2.5955 7.1544 -720.1868 12.3234 -1094.795 0.3234 -3.6553 -10.1089 0 0 0 20.4359 8.1646 10.2224 -0.1627 -2.599 7.1642 -359.6526 -13.2807 -13.7249 -0.0601 1.5818 -4.3511 -1.7261 0.5313 10.3063 -0.3994 0.4519 -1.9079 0.4742 0.2888 -7.8258 -13.7046 -9.9024 -10.9581 8.3674 -14.1467 32.2729 1083.369 -6.8485 14.6094 -0 -0 0 1446.933 5.0201 -1817.302 15.0201 -24.1741 3.2342 -340.5748 -1437.25 -16.5004 0 0 0 -7.125 0 0 -1088.02 47.2561 2880.449 -0 -0 0 -15.3652 15.9589 -2124.806 -27.785 -38.9175 -9.9883 349.5287 -720.0266 -12.0858 0 0 0 7.125 0 -0 3251.637 17.8413 -2152.328
